<?xml version="1.0" encoding="UTF-8" standalone="no"?>
<svg xmlns="http://www.w3.org/2000/svg" width="340" height="340" fill="none" viewBox="0 0 340 340">
  <path style="fill:#000000;stroke-width:1.33333337"
    d="M 183.33334,336.52209 C 151.1761,331.80587 125.0465,318.7495 102.5575,296.16021 79.949927,273.45181 67.92304,249.99486 63.123749,219.24958 l -2.094386,-13.4171 -16.219657,-1.60892 C 35.888895,203.33866 26.207289,201.95826 23.295024,201.156 11.809167,197.99198 5.337158,189.5451 8.1707332,181.4167 9.4735978,177.6793 9.274307,177.00403 6.1410599,174.53942 2.058189,171.32783 1.4677988,164.97164 4.8092504,160.20106 c 2.0040912,-2.86124 1.9609992,-3.25226 -0.6666667,-6.04928 -4.18445101,-4.45415 -3.75203513,-11.72122 1.0149127,-17.05635 3.4420046,-3.85228 4.7202315,-4.33704 12.7908986,-4.85094 9.970862,-0.6349 9.344131,0.53996 6.176181,-11.57782 -3.298738,-12.61807 -0.817157,-25.070796 5.869174,-29.45185 4.529675,-2.967956 14.092139,-3.005536 18.5678,-0.07297 4.259787,2.791123 4.47381,7.466042 0.771784,16.85815 -1.466666,3.72096 -2.666666,8.27297 -2.666666,10.11558 0,5.18796 3.464733,10.67252 7.903625,12.51117 2.216159,0.91796 6.456811,4.30248 9.423671,7.52113 2.96686,3.21867 5.831933,5.8494 6.366831,5.8461 0.534897,-0.003 3.501374,-4.95332 6.592172,-11.00001 12.074751,-23.62244 34.652923,-46.314063 59.322663,-59.620754 l 10.05879,-5.425637 -1.67463,-4.871169 c -1.2058,-3.507414 -1.29535,-6.019759 -0.31984,-8.973789 0.74513,-2.25644 1.22979,-8.436082 1.077,-13.732541 -0.31236,-10.82842 1.73289,-15.838638 7.96949,-19.522689 5.0483,-2.9821 5.24103,-2.87137 4.90703,2.819279 -0.28615,4.875343 -0.16893,5.01031 4.70156,5.413524 4.42344,0.366204 5.81133,-0.358513 12.12883,-6.333333 C 181.25215,16.950982 183.01019,16 187.59654,16 c 7.92161,0 13.14717,-2.308588 17.17312,-7.5868698 3.26778,-4.2842851 4.06596,-4.652168 8.7349,-4.025931 2.82618,0.379069 6.94058,2.2055629 9.14311,4.0588752 4.23307,3.5618936 5.69697,4.1504326 13.66624,5.4942756 3.31683,0.559308 5.76652,2.017418 7.33333,4.364954 1.29403,1.938799 6.41144,7.650326 11.37206,12.692282 12.903,13.114591 16.23765,20.101303 16.31988,34.193102 l 0.0653,11.190687 7.82075,5.326611 c 10.484,7.140518 26.08352,22.119234 34.22519,32.863154 8.60014,11.34893 17.60469,29.65468 22.01842,44.7622 4.9891,17.0769 6.00888,48.78954 2.16584,67.35112 -10.8484,52.3968 -53.57665,95.90265 -105.60205,107.52387 -8.5833,1.9173 -40.92526,3.4539 -48.69928,2.31376 z m 47.96401,-6.46804 c 11.32399,-2.74071 30.03599,-9.82639 30.03599,-11.37375 0,-0.61924 -1.19001,-3.90208 -2.64448,-7.2952 -2.33075,-5.43741 -2.95279,-6.00433 -5.24311,-4.77859 -7.44852,3.98634 -24.40657,6.48948 -45.02181,6.64562 -24.92499,0.18877 -39.51336,-1.99344 -51.81726,-7.75114 L 148,301.47345 v 3.06769 c 0,1.68723 0.38427,6.74412 0.85392,11.23753 l 0.85392,8.16986 6.81275,2.52944 c 3.74701,1.39118 11.31275,3.25684 16.81275,4.14588 5.5,0.88905 10.9,1.82998 12,2.09096 5.24502,1.2444 37.55718,-0.62608 45.96401,-2.66076 z m 54.98252,-27.22791 c 3.10011,-3.23547 5.362,-6.32692 5.02642,-6.86991 -0.33559,-0.543 -2.86679,-1.40565 -5.62488,-1.91702 -6.26215,-1.16106 -12.73856,-5.06832 -15.57418,-9.39602 -1.19278,-1.82041 -2.67149,-3.30985 -3.28601,-3.30985 -0.61452,0 -2.53167,2.66608 -4.26032,5.92463 -2.88012,5.42908 -3.01745,6.52318 -1.64195,13.081 0.82559,3.93601 2.43038,9.3805 3.56618,12.09886 l 2.0651,4.94251 7.04654,-4.33579 c 3.8756,-2.38466 9.58298,-6.98296 12.6831,-10.21841 z m -64.94653,6.48976 C 226.1,308.58405 235.85,306.69366 243,305.11503 l 13,-2.87021 v -14.32525 -14.32524 l -5.70661,1.71744 c -17.09232,5.14402 -47.23621,7.77137 -49.96447,4.3549 -2.1502,-2.69258 -2.77221,-21.36264 -1.50885,-45.28873 1.41976,-26.88792 3.29879,-41.06822 5.76929,-43.53872 1.01171,-1.01171 5.31338,-3.01226 9.55927,-4.44566 15.241,-5.14533 26.16052,-14.8982 30.59279,-27.32421 2.92128,-8.18988 2.45804,-10.32137 -2.78666,-12.8224 -6.51649,-3.10749 -8.4764,-2.82967 -10.01528,1.41972 -3.57961,9.88464 -9.27018,16.51557 -16.91441,19.70955 -5.93377,2.47928 -21.72664,2.53542 -27.56031,0.098 -2.44726,-1.02254 -5.38988,-3.20162 -6.53913,-4.84242 -2.21621,-3.16409 -12.49301,-8.44333 -13.40541,-6.88644 -3.36743,5.74604 -1.1242,16.28951 4.80958,22.60575 2.85231,3.03613 2.85594,3.11868 0.6147,14.01819 -3.11042,15.12646 -4.91956,37.85105 -4.9331,61.96408 L 168,274.66667 h -3.83948 c -2.1117,0 -7.94526,-2.06644 -12.96346,-4.59208 -5.0182,-2.52565 -9.2435,-4.47258 -9.38955,-4.32654 -0.14605,0.14605 0.70863,6.78413 1.89929,14.75129 2.14311,14.34035 2.21427,14.51844 7.09027,17.74523 6.31067,4.1762 21.71313,9.5351 31.54461,10.97517 10.9394,1.60235 28.89316,1.64663 38.99166,0.0961 z m -98.29172,-3.58475 C 119.08096,304.96486 101.59493,288.4877 93.950754,278.3187 85.61047,267.22367 81.506398,259.99142 76.382228,247.35923 c -2.385552,-5.88091 -4.347461,-9.90085 -4.359797,-8.9332 -0.05188,4.06963 8.995116,22.92047 16.092389,33.531 9.347191,13.9742 30.35572,34.7953 34.83891,34.52807 L 126,306.30353 Z m 17.9014,-6.04893 c -0.31892,-1.65855 -0.59198,-0.61555 -0.60678,2.31779 -0.0148,2.93333 0.24615,4.29033 0.57987,3.01554 0.33372,-1.27478 0.34583,-3.67478 0.0269,-5.33333 z m -1.6489,-14.97633 c -0.5236,-5.58752 -1.23434,-9.87678 -1.57944,-9.53167 -0.34509,0.34509 -0.19905,5.19905 0.32454,10.78657 0.5236,5.58752 1.23434,9.87678 1.57944,9.53167 0.34509,-0.34509 0.19905,-5.19905 -0.32454,-10.78657 z m 167.75354,-5.70588 c 8.40608,-14.60444 18.0968,-34.19289 21.86433,-44.19571 4.01442,-10.65832 3.45787,-12.54252 -8.04413,-27.2332 -17.47828,-22.32376 -40.79439,-42.21039 -61.86785,-52.76792 -7.2743,-3.64434 -8.33347,-3.87592 -8.33439,-1.82238 -5.8e-4,1.2939 -1.71283,5.95254 -3.80499,10.35254 -6.34525,13.34458 -22.26196,25.89405 -32.93912,25.97072 -6.99529,0.0503 -8.39213,2.21725 -9.90256,15.36261 -1.76097,15.32599 -3.36527,65.77718 -2.23487,70.28108 0.47276,1.88363 1.68736,3.74244 2.69912,4.13068 4.76462,1.82836 45.1891,-6.15342 49.56734,-9.78702 0.87094,-0.72283 1.9708,-5.0591 2.44409,-9.63615 0.80514,-7.78614 4.90371,-26.85895 6.85611,-31.90507 0.65793,-1.70051 -0.5328,-2.96571 -4.87699,-5.18195 -7.56277,-3.85824 -16.00657,-9.47985 -15.30009,-10.18633 0.30865,-0.30865 3.47085,0.89323 7.0271,2.67085 3.55624,1.77763 13.81591,6.08814 22.79925,9.5789 8.98333,3.49077 16.33333,6.61858 16.33333,6.95069 0,0.33212 -1.72023,3.11196 -3.82273,6.17741 -4.47075,6.51838 -11.12459,19.47085 -14.82456,28.85777 l -2.60652,6.61277 4.32962,5.71819 c 5.62746,7.43224 11.62986,10.38017 21.14083,10.38278 l 7.54997,0.003 5.94771,-10.33333 z M 136.94302,266.34889 c -0.31892,-1.65855 -0.59198,-0.61555 -0.60678,2.31778 -0.0148,2.93334 0.24615,4.29034 0.57987,3.01555 0.33372,-1.27479 0.34583,-3.67479 0.0269,-5.33333 z m 28.40125,-20.68222 c 0.012,-26.04812 1.4866,-44.1388 4.56123,-55.93539 1.73417,-6.65365 1.67685,-7.11264 -1.41119,-11.29824 -4.2784,-5.79904 -6.16195,-13.2933 -5.10779,-20.32293 l 0.86156,-5.74531 -7.7907,1.4212 c -10.11162,1.84459 -67.143684,1.75374 -75.789664,-0.1208 -3.666089,-0.79482 -6.752439,-1.34465 -6.858552,-1.22185 -0.10612,0.1228 0.659845,4.12327 1.702132,8.88993 3.207902,14.67063 -0.247489,29.10814 -9.174483,38.33334 l -4.193257,4.33333 h 15.359935 c 17.099019,0 36.399889,-2.85247 48.439739,-7.15887 6.24592,-2.23404 8.11029,-3.55189 8.72512,-6.16746 0.43005,-1.82948 1.6556,-3.49376 2.72345,-3.6984 1.6548,-0.31712 1.96695,4.60461 2.11358,33.32633 0.0947,18.53412 0.71402,35.4984 1.37646,37.6984 0.93476,3.10442 3.1069,4.97022 9.70151,8.33334 4.67339,2.38333 9.90399,4.33333 11.62353,4.33333 h 3.12646 l 0.0107,-25 z m -29.72083,8.01833 c -0.30646,-2.02674 -0.56541,-0.685 -0.57542,2.98167 -0.0107,3.66667 0.24074,5.32492 0.55722,3.685 0.31648,-1.63992 0.32468,-4.63992 0.0181,-6.66667 z M 134.38076,210.8423 134,197.54275 l -3.33333,1.95091 c -3.05782,1.78966 -3.08537,1.88378 -0.33333,1.13878 l 3,-0.81214 0.27905,25.08985 c 0.15348,13.79943 0.47483,19.27177 0.71409,12.16077 0.23927,-7.11098 0.2637,-18.91386 0.0543,-26.22862 z m -63.214092,19.99104 c -0.468519,-2.34259 -1.129781,-3.98134 -1.469473,-3.64164 -0.339692,0.33969 -0.20343,2.50342 0.302806,4.8083 1.201016,5.46819 2.278202,4.391 1.166667,-1.16666 z M 68.923989,220.35871 C 68.585931,219.06142 68.287105,219.8 68.259933,222 c -0.02717,2.2 0.24942,3.26142 0.614651,2.35871 0.365231,-0.90271 0.387463,-2.70271 0.0494,-4 z M 67.607645,209 c -0.317804,-1.65 -0.577825,-0.3 -0.577825,3 0,3.3 0.260021,4.65 0.577825,3 0.317804,-1.65 0.317804,-4.35 0,-6 z m 14.749569,-0.61937 c -2.003534,-0.30423 -5.603534,-0.31035 -8.000001,-0.0136 -2.396466,0.29675 -0.757212,0.54567 3.642789,0.55315 4.4,0.008 6.360745,-0.23531 4.357212,-0.53955 z M 99.666669,207.045 c -2.016667,-0.3055 -5.316667,-0.3055 -7.333334,0 -2.016667,0.3055 -0.366667,0.55546 3.666667,0.55546 4.033338,0 5.683338,-0.24996 3.666667,-0.55546 z m 15.000001,-1.77704 c 2.24794,-0.76401 1.16255,-0.88218 -3.33333,-0.36292 -3.66667,0.42348 -6.91667,0.9931 -7.22223,1.2658 -1.04992,0.93704 7.22436,0.2293 10.55556,-0.90288 z m -52.076153,-4.74182 c 6.184206,-5.20367 10.819596,-14.06988 11.671542,-22.32444 0.786028,-7.61588 -0.440776,-19.53503 -2.010687,-19.53503 -0.9533,0 -4.207733,10.44184 -6.856788,22 -1.880531,8.20499 -6.642059,15.67757 -12.010407,18.84873 -5.279888,3.11891 -5.123505,4.4846 0.513524,4.4846 2.972621,0 6.004092,-1.21145 8.692816,-3.47386 z m 62.076153,2.14053 c 1.68085,-0.72229 1.9273,-1.14591 0.66667,-1.14591 -1.1,0 -3.2,0.51566 -4.66667,1.14591 -1.68085,0.72229 -1.92731,1.14591 -0.66667,1.14591 1.1,0 3.2,-0.51566 4.66667,-1.14591 z m -71.952654,-5.3626 c 5.755573,-3.55713 11.508431,-14.94301 11.174987,-22.1172 C 63.756416,172.3341 64.623447,168.2 65.815749,166 c 5.081926,-9.37701 1.176391,-20.2227 -11.969768,-33.24014 -9.867768,-9.77114 -11.045443,-13.28475 -7.983279,-23.81823 3.180422,-10.940263 2.849974,-15.340748 -1.293766,-17.228763 -5.125974,-2.335551 -13.617659,1.011269 -17.64347,6.953802 -2.622515,3.871111 -3.066942,5.916821 -2.606984,12.000001 0.304964,4.03333 1.920932,10.45772 3.591037,14.27641 2.65209,6.06399 3.82075,7.24237 9.230186,9.30696 3.406496,1.30014 8.443629,4.39558 11.193629,6.87875 4.264786,3.85097 5,5.33681 5,10.10485 0,3.07451 -0.82947,6.72439 -1.843268,8.11084 -1.606276,2.19671 -1.498818,2.98671 0.83577,6.14442 2.041277,2.76097 2.47003,4.7377 1.801056,8.30364 -0.482891,2.57402 -1.551006,4.9044 -2.373588,5.17858 -0.99985,0.33328 -0.754848,1.62908 0.739126,3.90918 4.446435,6.7861 -0.95311,10.95004 -17.114231,13.19784 -5.535908,0.76997 -10.738533,0.98386 -11.561387,0.47532 -0.90289,-0.55803 -1.251729,-0.19022 -0.87979,0.92761 1.53225,4.60507 22.238615,4.48197 29.776994,-0.177 z m -6.748598,-6.07068 c 4.172272,-2.73379 4.327442,-6.56235 0.367916,-9.07776 -4.75048,-3.01791 -21.651027,-6.5804 -26.712718,-5.63083 -2.490106,0.46715 -5.874832,2.28356 -7.521611,4.03648 -2.4615981,2.62026 -2.7312414,3.67836 -1.516017,5.94903 1.659993,3.10173 5.485943,5.44736 11.417012,6.99961 6.008711,1.57258 20.139589,0.23024 23.965418,-2.27653 z m 6.521195,-15.91163 c 1.331155,-3.46894 -1.511697,-8.41506 -7.208612,-12.54189 -7.765439,-5.62525 -13.410858,-7.13196 -24.604642,-6.56669 -11.8087148,0.5963 -15.3400256,2.98892 -15.3400256,10.39348 0,7.34597 1.5150211,8.10146 14.5687506,7.26506 8.180915,-0.52417 13.137275,-0.17365 17.43125,1.23276 8.08455,2.64796 14.18696,2.73547 15.153279,0.21728 z M 214.0545,163.51084 C 220.33127,160.58799 228,153.43542 228,150.50395 c 0,-0.76729 -2.0293,-0.91739 -5,-0.36981 l -5,0.92162 7.01076,-5.56738 c 3.85592,-3.06207 9.25592,-8.49011 12,-12.06231 3.80851,-4.95784 6.3062,-6.84022 10.55407,-7.95404 3.18413,-0.8349 6.74921,-2.96485 8.33333,-4.97872 3.26966,-4.1567 3.65547,-11.96699 0.79302,-16.05371 -1.74511,-2.49149 -1.74511,-3.01162 0,-4.459934 1.08652,-0.901733 1.96987,-2.616049 1.96299,-3.809591 -0.0225,-3.917557 -7.74862,-15.757809 -13.48793,-20.670442 -3.09489,-2.649113 -5.269,-5.174653 -4.83133,-5.61231 1.34791,-1.347911 13.06877,10.356801 15.8705,15.848621 3.7636,7.377274 4.54845,5.177451 1.05232,-2.949517 -2.71774,-6.317542 -9.28939,-13.68587 -13.44013,-15.069448 -1.27674,-0.425583 -0.75214,-1.805955 1.87119,-4.92361 4.47019,-5.312516 5.67939,-9.657899 3.71101,-13.335847 -1.19262,-2.228429 -2.76049,-2.789356 -7.78004,-2.783418 -3.45753,0.0041 -8.57668,0.643405 -11.37586,1.420701 -4.89848,1.360239 -5.3101,1.209875 -10.97022,-4.007436 -6.5545,-6.04174 -9.04602,-6.471283 -18.29902,-3.154791 -5.99216,2.147732 -6.58043,2.148112 -10.20572,0.0065 -6.05351,-3.575894 -8.67702,-2.782133 -16.70284,5.053585 -4.12711,4.029349 -9.24655,8.22728 -11.37652,9.328734 -4.43935,2.295671 -12.22159,16.811093 -15.3756,28.67851 -5.9124,22.246213 1.64121,49.289413 17.99685,64.431853 8.31911,7.70203 16.68623,11.68111 28.68917,13.64346 4.21011,0.68831 5.56122,1.27789 3.66667,1.60004 -5.43741,0.92457 -3.124,2.99157 3.33333,2.97829 3.82384,-0.008 8.9965,-1.25314 13.0545,-3.1428 z m -37.99855,-26.77676 c -1.50376,-1.81192 -1.02281,-2.06741 3.89191,-2.06741 3.88914,0 5.43998,0.51077 5.06042,1.66667 -0.81816,2.49166 -6.98781,2.76784 -8.95233,0.40074 z m -4.44667,-8.11143 c -2.78156,-1.02087 -6.83156,-3.11945 -9,-4.66351 -2.75422,-1.96118 -3.95598,-2.27765 -3.98697,-1.04993 -0.0256,1.01294 -1.14705,0.43411 -2.64732,-1.36635 -1.96339,-2.35628 -2.27833,-3.73037 -1.2818,-5.59241 1.56243,-2.91941 3.97348,-4.64304 3.97348,-2.84058 0,0.69699 2.41215,2.2324 5.36032,3.41203 11.71549,4.68761 38.64468,0.63457 41.17171,-6.19665 0.90866,-2.45635 1.1661,-2.40709 5.21192,0.99724 4.38416,3.68903 5.52725,8.64728 2.92272,12.67751 -1.00718,1.5585 -1.297,1.19059 -1.31292,-1.66666 -0.0249,-4.48368 -0.42446,-4.51119 -5.81396,-0.40041 -10.84194,8.26954 -23.58103,10.73278 -34.59718,6.68972 z m 28.04638,-4.66106 c 14.3112,-7.15139 13.89797,-11.55132 -0.7054,-7.51107 -14.95263,4.13689 -23.66675,4.89755 -31.80934,2.77668 -8.19817,-2.13536 -10.64469,-1.49502 -6.47216,1.69399 10.87123,8.30872 26.07183,9.49414 38.9869,3.0404 z M 176.23242,102.2474 c -4.00239,-4.260349 -3.65426,-6.624099 1.84198,-12.50653 2.60759,-2.790811 5.65183,-6.77996 6.76499,-8.864775 1.11315,-2.084816 2.3594,-3.455088 2.76944,-3.045048 0.41004,0.41004 -1.78084,4.774825 -4.86861,9.699523 -5.14592,8.207231 -5.47007,9.239592 -3.88663,12.378381 0.95013,1.883409 1.94676,3.874389 2.21475,4.424389 1.06613,2.18817 -2.10606,0.81987 -4.83592,-2.08594 z m 66.71625,-3.149029 c -1.67823,-1.892086 -2.71156,-3.779921 -2.29629,-4.195189 1.10229,-1.102292 6.41712,4.566495 5.83837,6.227198 -0.26992,0.77448 -1.86384,-0.13992 -3.54208,-2.032009 z m 5.18775,-3.510153 c -0.90615,-1.693147 -3.1838,-4.0106 -5.06147,-5.149896 -2.23832,-1.358136 -2.88479,-2.398467 -1.87733,-3.021111 C 242.84084,86.401646 252,94.696313 252,97.200002 c 0,2.505675 -2.13713,1.61412 -3.86358,-1.611784 z m 5.82188,-1.052964 c -0.52352,-1.649474 -3.97196,-5.89469 -7.6632,-9.433814 -7.70432,-7.386826 -6.77111,-8.713932 1.28097,-1.821654 5.10817,4.372417 9.62779,11.960803 8.05848,13.530116 -0.39841,0.398417 -1.15273,-0.625175 -1.67625,-2.274648 z M 162.42407,83.333335 c -1.62929,-3.5759 0.20497,-10 2.85528,-10 1.86987,0 3.17528,6.007097 2.17313,10 -0.46014,1.833333 -1.43805,3.333333 -2.17313,3.333333 -0.73508,0 -2.01996,-1.5 -2.85528,-3.333333 z m 52.24769,1.339467 c -0.91012,-1.096627 -3.96394,-2.685712 -6.78626,-3.531303 -6.24934,-1.872344 -5.55634,-3.808164 1.36326,-3.808164 5.32283,0 7.14372,1.328928 8.67791,6.333333 1.04663,3.41403 -0.78631,3.980615 -3.25491,1.006134 z m 2.2539,-21.381602 c -2.05756,-1.81016 -4.60756,-3.291199 -5.66667,-3.291199 -2.18943,0 -2.58257,-2.103291 -0.61988,-3.316303 2.03984,-1.260692 5.7956,1.350324 8.43628,5.864934 2.88665,4.935149 2.6922,5.002316 -2.14973,0.742568 z M 165.0246,58.442068 c 0.7748,-0.774803 2.19576,-1.146392 3.15768,-0.825751 0.9986,0.332864 0.3942,0.937255 -1.40873,1.408733 -2.2178,0.579966 -2.73837,0.406442 -1.74895,-0.582982 z M 48.228346,157.79335 c 1.40687,-1.2732 2.438322,-4.03488 2.438322,-6.52855 0,-9.21925 -16.303031,-17.47538 -32.232605,-16.32314 -9.8014627,0.70897 -13.1288201,3.55298 -13.4454182,11.49229 -0.3416442,8.56737 1.9854527,10.11121 12.3956732,8.22348 9.554379,-1.73255 14.485183,-1.12937 21.97238,2.68781 6.27093,3.19711 5.857136,3.1762 8.871648,0.44811 z m 223.771664,-2.03363 c -6.0825,-3.7759 -29.49439,-14.4116 -31.74195,-14.41993 -0.99028,-0.004 0.16041,-2.29748 2.66666,-5.31575 2.42474,-2.92012 5.48842,-5.32012 6.80816,-5.33334 5.02582,-0.0503 10.30779,-4.19294 13.58027,-10.65086 1.99654,-3.93996 2.79911,-6.89178 2.00692,-7.38137 -0.72604,-0.44871 -1.32006,0.14347 -1.32006,1.31596 0,6.93071 -7.99463,15.35891 -14.56879,15.35891 -1.34383,0 -4.6579,2.70259 -7.3646,6.00577 -4.37583,5.34013 -4.65224,6.09809 -2.49395,6.83865 6.59213,2.26191 26.90264,11.48862 30.42734,13.8226 2.2,1.45682 4.6,2.65044 5.33333,2.65254 0.73333,0.003 -0.76667,-1.29984 -3.33333,-2.89318 z m -149.63143,-3.39557 c -2.73062,-0.28651 -7.53062,-0.29047 -10.66667,-0.009 -3.13605,0.28166 -0.90191,0.51608 4.96476,0.52092 5.86667,0.005 8.43253,-0.22562 5.70191,-0.51211 z M 103,151.05903 c -1.65,-0.31781 -4.349998,-0.31781 -5.999998,0 -1.65,0.3178 -0.3,0.57783 2.999998,0.57783 3.3,0 4.65,-0.26003 3,-0.57783 z m 35.33334,-0.014 c -2.01667,-0.30551 -5.31667,-0.30551 -7.33334,0 -2.01666,0.30549 -0.36666,0.55545 3.66667,0.55545 4.03333,0 5.68333,-0.24996 3.66667,-0.55545 z m -52.333338,-2.85699 c -6.607428,-1.87092 -7.932299,-2.7227 -7.61107,-4.8933 0.321394,-2.17171 0.15129,-2.28078 -0.979582,-0.62807 -0.752683,1.1 -1.377702,2.43184 -1.388931,2.95965 -0.02501,1.17543 11.63008,4.85988 15.312916,4.84079 1.466667,-0.008 -0.933333,-1.03319 -5.333333,-2.27907 z m 67.643508,1.62659 4.97684,-0.82269 -3.80796,-4.8293 c -2.09437,-2.65612 -5.08172,-6.9293 -6.63852,-9.49597 -1.55681,-2.56667 -2.83281,-4.01434 -2.83555,-3.21706 -0.003,0.79729 2.40696,4.81786 5.3549,8.93461 l 5.35989,7.48498 -5.02656,0.82086 c -8.19331,1.338 -9.20676,1.6597 -5.69321,1.80726 1.83333,0.0769 5.5729,-0.23021 8.31017,-0.68269 z M 85.270002,129.45748 c 7.1759,-14.06593 29.502628,-36.789514 45.582528,-46.392762 11.71451,-6.996145 12.01595,-7.002169 11.16579,-0.223135 l -0.73053,5.825085 1.90489,-6.666666 c 1.0477,-3.666667 1.71608,-6.858525 1.48532,-7.093015 -0.69854,-0.709811 -11.54381,5.151561 -19.4714,10.523401 -10.67485,7.233427 -21.8146,17.732482 -30.824551,29.051682 -7.153231,8.98661 -14.052598,20.1846 -12.436245,20.1846 0.366667,0 1.862556,-2.34414 3.324198,-5.20919 z m 58.062508,-8.12414 C 142.3577,117.3 141.51244,115.2 141.45416,116.66667 c -0.11906,2.99556 2.49024,13.16842 3.19548,12.45836 0.25039,-0.2521 -0.34232,-3.75836 -1.31713,-7.79169 z m -2.35245,-26.333338 c -0.27467,-3.483334 -0.49939,-0.633333 -0.49939,6.333338 0,6.96666 0.22472,9.81666 0.49939,6.33333 0.27466,-3.48333 0.27466,-9.183335 0,-12.666668 z M 264.61502,79.758 c 1.12841,-3.799768 2.05165,-11.181961 2.05165,-16.404875 0,-11.666668 -4.26736,-21.300914 -12.28772,-27.74152 -2.93021,-2.35305 -6.4994,-6.573366 -7.93152,-9.378482 -2.57463,-5.042924 -10.60968,-10.134564 -16.10256,-10.20384 -1.27699,-0.0161 -5.07295,-2.129283 -8.43545,-4.695949 -8.34158,-6.367259 -10.71212,-6.0728791 -18.07004,2.243968 l -6.16063,6.963518 -5.39564,-1.78072 c -4.97015,-1.640296 -5.77368,-1.547078 -10.18957,1.182092 -2.63667,1.629548 -5.42464,4.141295 -6.1955,5.581659 -3.28297,6.134298 -15.76001,10.080836 -19.63137,6.209483 -0.88,-0.88 -1.6,-3.03 -1.6,-4.777777 0,-3.938953 -2.70229,-3.315117 -4.98035,1.149736 -3.97104,7.782994 -0.60722,21.524087 6.15503,25.143136 4.04731,2.166052 7.99929,-0.04283 16.27653,-9.097428 7.98118,-8.730722 12.53146,-10.299811 17.96062,-6.193404 2.99876,2.268144 8.0552,2.650128 9.2607,0.699588 0.45644,-0.738548 2.44186,-2.162538 4.41202,-3.164419 7.93824,-4.036809 8.74064,-3.876839 15.85212,3.160343 7.39381,7.31656 10.19265,8.022152 18.3317,4.621439 5.97807,-2.497795 8.89335,-1.718545 13.33974,3.565684 4.44736,5.285381 4.28286,9.385557 -0.59963,14.946409 l -3.99153,4.546098 5.98933,5.989333 c 3.46652,3.466517 6.34127,7.749027 6.82487,10.166964 1.20107,6.005371 2.77169,5.167132 5.1172,-2.731036 z M 154.2895,59.680114 c 1.9907,-2.199713 1.91313,-2.62589 -1.0527,-5.782869 l -3.20178,-3.408147 -2.35084,2.903163 c -2.91544,3.600413 -2.94436,5.592424 -0.1594,10.977956 l 2.19145,4.237788 1.21208,-3.276584 c 0.66665,-1.802122 2.17919,-4.34521 3.36119,-5.651307 z"/>
</svg>
